<svg xmlns="http://www.w3.org/2000/svg" viewBox="0 0 750 500"><g id="freepik--Line--inject-2"><g><line x1="398.29" y1="457.03" x2="398.29" y2="472.47" style="fill:none; stroke:#263238; stroke-linecap:round; stroke-linejoin:round;"></line><line x1="398.29" y1="47.73" x2="398.29" y2="448.52" style="fill:none; stroke:#263238; stroke-linecap:round; stroke-linejoin:round;"></line><line x1="398.29" y1="25.36" x2="398.29" y2="41.19" style="fill:none; stroke:#263238; stroke-linecap:round; stroke-linejoin:round;"></line></g></g><g id="freepik--Floor--inject-2"><g><line x1="727.29" y1="362.52" x2="742.02" y2="362.52" style="fill:none; stroke:#263238; stroke-linecap:round; stroke-linejoin:round;"></line><line x1="6.05" y1="362.52" x2="718.12" y2="362.52" style="fill:none; stroke:#263238; stroke-linecap:round; stroke-linejoin:round;"></line></g></g><g id="freepik--Fast_Food--inject-2"><g><rect x="514.41" y="129.8" width="8" height="85.7" transform="translate(-9.39 31.3) rotate(-3.43)" style="fill:#263238;"></rect><polygon points="566.44 395.31 476.62 395.31 461.64 200.33 581.41 200.33 566.44 395.31" style="fill:#CB71DF; stroke:#263238; stroke-linecap:round; stroke-linejoin:round;"></polygon><rect x="457.96" y="196.98" width="125.5" height="11.78" style="fill:#fff; stroke:#263238; stroke-linecap:round; stroke-linejoin:round;"></rect><path d="M573.46,303.82l4.07-52.98c-49.5,4.75-86.1,23.75-108.95,39.82l8.04,104.65h89.82l3.31-43.05c-50.59,5.24-105.06,43.04-71.31,4.54,13.76-15.7,45.91-35.05,75.03-52.98Z" style="fill:#fff; stroke:#263238; stroke-linecap:round; stroke-linejoin:round;"></path></g><g><path d="M514.6,276.03l15.77,113.11c.49,3.53,3.51,6.16,7.08,6.16h53.41c3.61,0,6.65-2.69,7.1-6.26l14.13-113.01s-44.73-27.53-97.49,0Z" style="fill:#fff; stroke:#263238; stroke-linecap:round; stroke-linejoin:round;"></path><path d="M522.07,246.45l4.61,86.14s4.96,5.32,6.74,1.77c1.77-3.54-1.42-67.35-2.84-77.28-1.42-9.93-1.77-14.53-8.51-10.63Z" style="fill:#fff; stroke:#263238; stroke-linecap:round; stroke-linejoin:round;"></path><path d="M541.57,244.68s-2.48,91.46-1.77,92.52c.71,1.06,8.15,4.61,8.86,2.48,.71-2.13,3.19-91.1,1.77-93.58-1.42-2.48-4.61-2.48-8.86-1.42Z" style="fill:#fff; stroke:#263238; stroke-linecap:round; stroke-linejoin:round;"></path><path d="M555.75,246.81s-3.9,93.94-2.48,94.65c1.42,.71,6.38,2.84,7.8,0,1.42-2.84,4.61-88.62,2.13-93.94-2.48-5.32-5.32-3.19-7.44-.71Z" style="fill:#fff; stroke:#263238; stroke-linecap:round; stroke-linejoin:round;"></path><path d="M566.38,245.74s3.9,88.27,4.96,93.23c1.06,4.96,8.86,5.32,9.57,.71s-4.96-87.2-6.03-92.52c-1.06-5.32-7.09-4.25-8.51-1.42Z" style="fill:#fff; stroke:#263238; stroke-linecap:round; stroke-linejoin:round;"></path><path d="M538.73,230.5s-7.09,84.01-6.38,89.33c.71,5.32,6.38,6.38,6.74,1.77s9.22-91.1,7.8-92.52c-1.42-1.42-7.44-1.77-8.15,1.42Z" style="fill:#fff; stroke:#263238; stroke-linecap:round; stroke-linejoin:round;"></path><path d="M562.84,219.51s19.85,94.29,21.27,97.13c1.42,2.84,6.74,2.13,6.74-.71s-20.56-92.17-22.33-96.42-3.54-2.48-5.67,0Z" style="fill:#fff; stroke:#263238; stroke-linecap:round; stroke-linejoin:round;"></path><path d="M591.55,243.26s-5.67,101.74-2.13,104.57c3.54,2.84,5.32,.35,5.67-2.13,.35-2.48,4.25-95.36,4.25-101.38s-6.74-4.96-7.8-1.06Z" style="fill:#fff; stroke:#263238; stroke-linecap:round; stroke-linejoin:round;"></path><path d="M558.58,229.79s4.96,63.1,4.96,79.05-1.06,35.45,.71,36.87c1.77,1.42,6.38-.35,6.38-10.63s-1.42-88.98-2.84-96.06c-1.42-7.09-4.61-12.05-9.22-9.22Z" style="fill:#fff; stroke:#263238; stroke-linecap:round; stroke-linejoin:round;"></path><path d="M601.83,251.41l-4.61,86.14s-4.96,5.32-6.74,1.77c-1.77-3.54,1.42-67.35,2.84-77.28,1.42-9.93,1.77-14.53,8.51-10.63Z" style="fill:#fff; stroke:#263238; stroke-linecap:round; stroke-linejoin:round;"></path><path d="M582.33,249.64s2.48,91.46,1.77,92.52c-.71,1.06-8.15,4.61-8.86,2.48-.71-2.13-3.19-91.1-1.77-93.58,1.42-2.48,4.61-2.48,8.86-1.42Z" style="fill:#fff; stroke:#263238; stroke-linecap:round; stroke-linejoin:round;"></path><path d="M568.15,251.77s3.9,93.94,2.48,94.65-6.38,2.84-7.8,0c-1.42-2.84-4.61-88.62-2.13-93.94,2.48-5.32,5.32-3.19,7.44-.71Z" style="fill:#fff; stroke:#263238; stroke-linecap:round; stroke-linejoin:round;"></path><path d="M557.52,250.71s-3.9,88.27-4.96,93.23c-1.06,4.96-8.86,5.32-9.57,.71-.71-4.61,4.96-87.2,6.03-92.52,1.06-5.32,7.09-4.25,8.51-1.42Z" style="fill:#fff; stroke:#263238; stroke-linecap:round; stroke-linejoin:round;"></path><path d="M585.17,235.46s7.09,84.01,6.38,89.33c-.71,5.32-6.38,6.38-6.74,1.77-.35-4.61-9.22-91.1-7.8-92.52,1.42-1.42,7.44-1.77,8.15,1.42Z" style="fill:#fff; stroke:#263238; stroke-linecap:round; stroke-linejoin:round;"></path><path d="M555.39,240.78s-19.85,94.29-21.27,97.13c-1.42,2.84-6.74,2.13-6.74-.71s20.56-92.17,22.33-96.42,3.54-2.48,5.67,0Z" style="fill:#fff; stroke:#263238; stroke-linecap:round; stroke-linejoin:round;"></path><path d="M532.35,248.22s5.67,101.74,2.13,104.57c-3.54,2.84-5.32,.35-5.67-2.13s-4.25-95.36-4.25-101.38,6.74-4.96,7.8-1.06Z" style="fill:#fff; stroke:#263238; stroke-linecap:round; stroke-linejoin:round;"></path><path d="M565.32,234.75s-4.96,63.1-4.96,79.05,1.06,35.45-.71,36.87-6.38-.35-6.38-10.63,1.42-88.98,2.84-96.06c1.42-7.09,4.61-12.05,9.22-9.22Z" style="fill:#fff; stroke:#263238; stroke-linecap:round; stroke-linejoin:round;"></path><path d="M595.55,287.21c1.76,3.65,2.73,7.67,2.73,11.89,0,16.74-15.32,30.31-34.21,30.31s-34.21-13.57-34.21-30.31c0-4.86,1.3-9.45,3.6-13.53-11.77-4.52-18.86-9.54-18.86-9.54l15.77,113.11c.49,3.53,3.51,6.16,7.08,6.16h53.41c3.61,0,6.65-2.69,7.1-6.26l14.13-113.01s-5.63,6.34-16.54,11.18Z" style="fill:#CB71DF; stroke:#263238; stroke-linecap:round; stroke-linejoin:round;"></path><path d="M564.87,338.43l-34.35,51.36c.75,3.2,3.59,5.52,6.93,5.52h53.41c3.61,0,6.65-2.69,7.1-6.26l.08-.67-33.17-49.94Z" style="fill:#fff; stroke:#263238; stroke-linecap:round; stroke-linejoin:round;"></path></g><g><g><rect x="624.28" y="132.47" width="6.43" height="71.71" transform="translate(-21.98 184.63) rotate(-16.45)" style="fill:#bdbdbd; stroke:#263238; stroke-linecap:round; stroke-linejoin:round;"></rect><line x1="621.54" y1="137.18" x2="617.74" y2="142.42" style="fill:#fff; stroke:#263238; stroke-linecap:round; stroke-linejoin:round;"></line><line x1="619.64" y1="152.36" x2="622.46" y2="148.65" style="fill:#fff; stroke:#263238; stroke-linecap:round; stroke-linejoin:round;"></line><line x1="627.19" y1="156.31" x2="623.39" y2="161.55" style="fill:#fff; stroke:#263238; stroke-linecap:round; stroke-linejoin:round;"></line><line x1="625.29" y1="171.49" x2="628.11" y2="167.78" style="fill:#fff; stroke:#263238; stroke-linecap:round; stroke-linejoin:round;"></line><line x1="632.84" y1="175.44" x2="629.04" y2="180.68" style="fill:#fff; stroke:#263238; stroke-linecap:round; stroke-linejoin:round;"></line><line x1="630.94" y1="190.63" x2="633.76" y2="186.91" style="fill:#fff; stroke:#263238; stroke-linecap:round; stroke-linejoin:round;"></line></g><g><rect x="617.76" y="148.47" width="6.43" height="71.71" transform="translate(-19.69 279.92) rotate(-25.02)" style="fill:#bdbdbd; stroke:#263238; stroke-linecap:round; stroke-linejoin:round;"></rect><line x1="610.45" y1="154.41" x2="607.47" y2="160.16" style="fill:#fff; stroke:#263238; stroke-linecap:round; stroke-linejoin:round;"></line><line x1="610.84" y1="169.71" x2="613.07" y2="165.61" style="fill:#fff; stroke:#263238; stroke-linecap:round; stroke-linejoin:round;"></line><line x1="618.89" y1="172.49" x2="615.91" y2="178.24" style="fill:#fff; stroke:#263238; stroke-linecap:round; stroke-linejoin:round;"></line><line x1="619.27" y1="187.78" x2="621.5" y2="183.69" style="fill:#fff; stroke:#263238; stroke-linecap:round; stroke-linejoin:round;"></line><line x1="627.33" y1="190.56" x2="624.34" y2="196.32" style="fill:#fff; stroke:#263238; stroke-linecap:round; stroke-linejoin:round;"></line><line x1="627.71" y1="205.86" x2="629.94" y2="201.77" style="fill:#fff; stroke:#263238; stroke-linecap:round; stroke-linejoin:round;"></line></g><g><path d="M701.22,385.87c-3.29-1.76-8.04-3.63-15.56-7.2s-8.32-7.52-9.9-12.28c-1.58-4.75,0-10.3,0-10.3l-13.46-2.18v-.19l-.59,.1-.59-.1v.19l-13.46,2.18s1.58,5.54,0,10.3c-1.58,4.75-2.38,8.71-9.9,12.28-7.52,3.56-10.04,4.03-13.25,5.94-12.08,7.22-11.11,10.69-11.11,10.69h96.63s.31-4.57-8.79-9.44Z" style="fill:#CB71DF; stroke:#263238; stroke-linecap:round; stroke-linejoin:round;"></path><path d="M661.7,361.31h0c-13.92,0-25.8-10.08-28.08-23.81l-20.2-122.12h96.55l-20.2,122.12c-2.27,13.74-14.15,23.81-28.08,23.81Z" style="fill:#CB71DF; stroke:#263238; stroke-linecap:round; stroke-linejoin:round;"></path><polygon points="617.74 241.45 705.66 241.45 709.98 215.37 613.43 215.37 617.74 241.45" style="fill:#CB71DF; stroke:#263238; stroke-linecap:round; stroke-linejoin:round;"></polygon><line x1="644.43" y1="330.06" x2="645.61" y2="340.22" style="fill:#fff; stroke:#263238; stroke-linecap:round; stroke-linejoin:round;"></line><line x1="634.51" y1="244.23" x2="643.87" y2="325.17" style="fill:#fff; stroke:#263238; stroke-linecap:round; stroke-linejoin:round;"></line><line x1="666.69" y1="283.18" x2="666.14" y2="301.38" style="fill:#fff; stroke:#263238; stroke-linecap:round; stroke-linejoin:round;"></line><line x1="667.8" y1="245.89" x2="666.87" y2="277.02" style="fill:#fff; stroke:#263238; stroke-linecap:round; stroke-linejoin:round;"></line><line x1="698.32" y1="246.45" x2="694.44" y2="278.63" style="fill:#fff; stroke:#263238; stroke-linecap:round; stroke-linejoin:round;"></line></g><path d="M709.98,215.37s-.94-15.78-13.63-23.59-18.22-5.53-19.19-5.53-2.93-5.53-14.96-6.18c-12.04-.65-17.24,5.86-18.22,6.83s-1.63,.33-9.11,3.25c-7.48,2.93-10.73,7.81-11.06,10.08-.33,2.28-5.86,2.93-8.13,6.83-2.28,3.9-2.25,8.3-2.25,8.3l11.34,61.4c.2,1.1,1.13,1.92,2.24,2h0c1.54,.1,2.79-1.23,2.59-2.76l-6.37-47.62c-.39-2.93,1.73-5.59,4.67-5.86h0c3.05-.28,5.82,1.77,6.47,4.76l1.36,6.33c.26,1.23,1.32,2.14,2.57,2.23h0c1.53,.1,2.86-1.04,3-2.56l.53-5.85c.29-3.2,3.04-5.61,6.25-5.48l2.46,.1c4.81,.2,9.36-2.16,11.98-6.19h0l47.46-.48Z" style="fill:#fff; stroke:#263238; stroke-linecap:round; stroke-linejoin:round;"></path><path d="M669.67,209.68c1.95-2.6,5.86,2.28,9.43,0,3.58-2.28-1.63-4.88-4.23-7.48-2.6-2.6,.98-7.16,9.11-4.88,8.13,2.28,9.11,13.66,10.73,7.48,1.63-6.18-5.53-12.36-10.08-14.96-4.55-2.6-7.48-3.58-7.48-3.58-.98,0-2.93-5.53-14.96-6.18-12.04-.65-17.24,5.86-18.22,6.83-.98,.98-1.63,.33-9.11,3.25s-10.73,7.81-11.06,10.08c-.33,2.28-5.86,2.93-8.13,6.83-2.28,3.9-2.25,8.3-2.25,8.3l11.34,61.4c.2,1.1,1.13,1.92,2.24,2,1.54,.1,2.79-1.23,2.59-2.76l-6.37-47.62s-1.04-4.39-.07-9.27c.98-4.88-5.86-7.81-3.25-11.06,2.6-3.25,5.2-1.95,8.13,2.93,2.93,4.88,6.83-2.93,10.41-6.18,3.58-3.25,8.13-10.41,14.64-6.83,6.51,3.58-1.63,15.94,1.95,17.24,3.58,1.3,12.69-2.93,14.64-5.53Z" style="fill:#263238; stroke:#263238; stroke-linecap:round; stroke-linejoin:round;"></path><g><path d="M657.83,174.1s-6.06-2.02-15.14-8.83-12.62-8.33-12.62-6.31,26.49,16.91,29.27,16.91" style="fill:#CB71DF; stroke:#263238; stroke-linecap:round; stroke-linejoin:round;"></path><path d="M670.04,177.57c0,3.75-3.04,6.79-6.79,6.79s-6.79-3.04-6.79-6.79,3.04-6.79,6.79-6.79,6.79,3.04,6.79,6.79Z" style="fill:#CB71DF; stroke:#263238; stroke-linecap:round; stroke-linejoin:round;"></path><path d="M666.91,174.6c0,.98-.96,1.77-2.14,1.77s-2.14-.79-2.14-1.77,.96-1.77,2.14-1.77,2.14,.79,2.14,1.77Z" style="fill:#fff;"></path></g></g><g><path d="M587.7,352.2s104.39,.75,107.06,3.08c2.67,2.33,3.87,13.17,1.25,23.06s-8.78,13.82-19.98,17.18c-11.2,3.36-31.18,4.11-51.35,2.8-20.17-1.31-28.57-5.79-32.68-9.71-4.11-3.92-8.22-11.2-7.47-17.74,.75-6.54,2.05-13.07,2.05-13.07l1.12-5.6Z" style="fill:#d6d6d6; stroke:#263238; stroke-linecap:round; stroke-linejoin:round;"></path><path d="M694.76,355.28c-2.67-2.33-107.06-3.08-107.06-3.08l-1.12,5.6s-.86,4.32-1.59,9.45l2.34,3.24c.89,2.7,2.7,6.06,6.34,6.91,6.35,1.49,15.31,1.31,22.97,2.24,7.66,.93,11.95,2.24,25.21,2.24s24.46-2.24,24.46-2.24l9.52-1.68,8.78-2.05,7.47-3.73s2.61-.19,4.67-1.49c.17-.11,.37-.25,.58-.41,.52-7.08-.63-13.3-2.58-15Z" style="fill:none; stroke:#263238; stroke-linecap:round; stroke-linejoin:round;"></path><g><ellipse cx="669.57" cy="371.31" rx="16.78" ry="12.24" style="fill:#CB71DF; stroke:#263238; stroke-linecap:round; stroke-linejoin:round;"></ellipse><ellipse cx="669.57" cy="369.08" rx="16.78" ry="12.24" style="fill:#CB71DF; stroke:#263238; stroke-linecap:round; stroke-linejoin:round;"></ellipse><path d="M676.11,369.17c-2.6-1.11,2.46-1.75,2.19-4.63-.35-3.74-11.82-6.34-15.24-4.62-3.42,1.71-5.65,4.45-2.57,6.85,3.08,2.4,6.51,2.74,6.51,2.74,0,0-6.79-2.69-9.22-.49-2.43,2.2,1.17,6.65,4.77,8.54s7.02,2.4,7.71,1.37c.68-1.03,.34-4.11,1.2-3.25,.86,.86,1.37,2.74,2.91,2.74s6.51-1.71,7.53-4.97c1.03-3.25-1.48-4.6-5.79-4.27Z" style="fill:#CB71DF; stroke:#263238; stroke-linecap:round; stroke-linejoin:round;"></path><ellipse cx="663.83" cy="371.65" rx="1.97" ry="1.28" style="fill:#CB71DF; stroke:#263238; stroke-linecap:round; stroke-linejoin:round;"></ellipse><path d="M678.3,371.82c0,.61-.77,1.11-1.71,1.11s-1.71-.5-1.71-1.11,.77-1.11,1.71-1.11,1.71,.5,1.71,1.11Z" style="fill:#CB71DF; stroke:#263238; stroke-linecap:round; stroke-linejoin:round;"></path><path d="M673.16,373.27c0,.57-.77,1.03-1.71,1.03s-1.71-.46-1.71-1.03,.77-1.03,1.71-1.03,1.71,.46,1.71,1.03Z" style="fill:#CB71DF; stroke:#263238; stroke-linecap:round; stroke-linejoin:round;"></path><path d="M671.28,366c0,.71-1.15,1.28-2.57,1.28s-2.57-.58-2.57-1.28,1.15-1.28,2.57-1.28,2.57,.58,2.57,1.28Z" style="fill:#CB71DF; stroke:#263238; stroke-linecap:round; stroke-linejoin:round;"></path><path d="M675.73,365.31c0,.33-.31,.6-.68,.6s-.68-.27-.68-.6,.31-.6,.68-.6,.68,.27,.68,.6Z" style="fill:#CB71DF; stroke:#263238; stroke-linecap:round; stroke-linejoin:round;"></path></g><g><ellipse cx="649.72" cy="370" rx="16.78" ry="12.24" style="fill:#CB71DF; stroke:#263238; stroke-linecap:round; stroke-linejoin:round;"></ellipse><ellipse cx="649.72" cy="367.77" rx="16.78" ry="12.24" style="fill:#CB71DF; stroke:#263238; stroke-linecap:round; stroke-linejoin:round;"></ellipse><path d="M656.26,367.87c-2.6-1.11,2.46-1.75,2.19-4.63-.35-3.74-11.82-6.34-15.24-4.62s-5.65,4.45-2.57,6.85,6.51,2.74,6.51,2.74c0,0-6.79-2.69-9.22-.49-2.43,2.2,1.17,6.65,4.77,8.54,3.6,1.88,7.02,2.4,7.71,1.37,.68-1.03,.34-4.11,1.2-3.25s1.37,2.74,2.91,2.74,6.51-1.71,7.53-4.97c1.03-3.25-1.48-4.6-5.79-4.27Z" style="fill:#CB71DF; stroke:#263238; stroke-linecap:round; stroke-linejoin:round;"></path><path d="M645.95,370.34c0,.71-.88,1.28-1.97,1.28s-1.97-.58-1.97-1.28,.88-1.28,1.97-1.28,1.97,.58,1.97,1.28Z" style="fill:#CB71DF; stroke:#263238; stroke-linecap:round; stroke-linejoin:round;"></path><path d="M658.46,370.51c0,.61-.77,1.11-1.71,1.11s-1.71-.5-1.71-1.11,.77-1.11,1.71-1.11,1.71,.5,1.71,1.11Z" style="fill:#CB71DF; stroke:#263238; stroke-linecap:round; stroke-linejoin:round;"></path><path d="M653.32,371.97c0,.57-.77,1.03-1.71,1.03s-1.71-.46-1.71-1.03,.77-1.03,1.71-1.03,1.71,.46,1.71,1.03Z" style="fill:#CB71DF; stroke:#263238; stroke-linecap:round; stroke-linejoin:round;"></path><path d="M651.43,364.69c0,.71-1.15,1.28-2.57,1.28s-2.57-.58-2.57-1.28,1.15-1.28,2.57-1.28,2.57,.57,2.57,1.28Z" style="fill:#CB71DF; stroke:#263238; stroke-linecap:round; stroke-linejoin:round;"></path><path d="M655.89,364.01c0,.33-.31,.6-.68,.6s-.68-.27-.68-.6,.31-.6,.68-.6,.68,.27,.68,.6Z" style="fill:#CB71DF; stroke:#263238; stroke-linecap:round; stroke-linejoin:round;"></path></g><g><ellipse cx="605.35" cy="372.19" rx="16.78" ry="12.24" style="fill:#CB71DF; stroke:#263238; stroke-linecap:round; stroke-linejoin:round;"></ellipse><ellipse cx="605.35" cy="369.96" rx="16.78" ry="12.24" style="fill:#CB71DF; stroke:#263238; stroke-linecap:round; stroke-linejoin:round;"></ellipse><path d="M611.89,370.06c-2.6-1.11,2.46-1.75,2.19-4.63-.35-3.74-11.82-6.34-15.24-4.62-3.42,1.71-5.65,4.45-2.57,6.85,3.08,2.4,6.51,2.74,6.51,2.74,0,0-6.79-2.69-9.22-.49-2.43,2.2,1.17,6.65,4.77,8.54,3.6,1.88,7.02,2.4,7.71,1.37,.68-1.03,.34-4.11,1.2-3.25s1.37,2.74,2.91,2.74,6.51-1.71,7.53-4.97c1.03-3.25-1.48-4.6-5.79-4.27Z" style="fill:#CB71DF; stroke:#263238; stroke-linecap:round; stroke-linejoin:round;"></path><ellipse cx="599.61" cy="372.53" rx="1.97" ry="1.28" style="fill:#CB71DF; stroke:#263238; stroke-linecap:round; stroke-linejoin:round;"></ellipse><path d="M614.08,372.7c0,.61-.77,1.11-1.71,1.11s-1.71-.5-1.71-1.11,.77-1.11,1.71-1.11,1.71,.5,1.71,1.11Z" style="fill:#CB71DF; stroke:#263238; stroke-linecap:round; stroke-linejoin:round;"></path><path d="M608.95,374.16c0,.57-.77,1.03-1.71,1.03s-1.71-.46-1.71-1.03,.77-1.03,1.71-1.03,1.71,.46,1.71,1.03Z" style="fill:#CB71DF; stroke:#263238; stroke-linecap:round; stroke-linejoin:round;"></path><path d="M607.06,366.88c0,.71-1.15,1.28-2.57,1.28s-2.57-.58-2.57-1.28,1.15-1.28,2.57-1.28,2.57,.58,2.57,1.28Z" style="fill:#CB71DF; stroke:#263238; stroke-linecap:round; stroke-linejoin:round;"></path><path d="M611.52,366.19c0,.33-.31,.6-.68,.6s-.68-.27-.68-.6,.31-.6,.68-.6,.68,.27,.68,.6Z" style="fill:#CB71DF; stroke:#263238; stroke-linecap:round; stroke-linejoin:round;"></path></g><path d="M588.02,361.23s-1.26,4.98,2.29,8.53,11.42,4.29,16.81,4.48c5.23,.19,11.2,.56,15.69,1.31,4.48,.75,14.57-.19,22.59,.19,8.03,.37,21.66-2.99,23.16-3.36,1.49-.37,5.6,0,9.15-.56s7.84,1.49,13.82-2.8c5.98-4.29,8.59-14.19,2.8-17.93-5.79-3.73-92.62,.37-94.86,.37s-9.76,1.55-11.44,9.77Z" style="fill:#263238; stroke:#263238; stroke-linecap:round; stroke-linejoin:round;"></path><g><rect x="583.92" y="359.56" width="55.62" height="6.44" transform="translate(-19.75 35.59) rotate(-3.28)" style="fill:#fff; stroke:#263238; stroke-linecap:round; stroke-linejoin:round;"></rect><line x1="589.04" y1="362.03" x2="589.46" y2="365.82" style="fill:none; stroke:#263238; stroke-linecap:round; stroke-linejoin:round;"></line><line x1="593.75" y1="366.35" x2="593.04" y2="363.13" style="fill:none; stroke:#263238; stroke-linecap:round; stroke-linejoin:round;"></line><line x1="586.41" y1="363.86" x2="586.53" y2="366.83" style="fill:none; stroke:#263238; stroke-linecap:round; stroke-linejoin:round;"></line><line x1="596.92" y1="360.66" x2="597.38" y2="363.97" style="fill:none; stroke:#263238; stroke-linecap:round; stroke-linejoin:round;"></line><line x1="604.46" y1="366.14" x2="604.11" y2="362.95" style="fill:none; stroke:#263238; stroke-linecap:round; stroke-linejoin:round;"></line><line x1="628.55" y1="359.06" x2="628.66" y2="362.03" style="fill:none; stroke:#263238; stroke-linecap:round; stroke-linejoin:round;"></line><line x1="626.49" y1="364.66" x2="626.15" y2="361.92" style="fill:none; stroke:#263238; stroke-linecap:round; stroke-linejoin:round;"></line><line x1="633.69" y1="364.32" x2="633" y2="361.12" style="fill:none; stroke:#263238; stroke-linecap:round; stroke-linejoin:round;"></line><line x1="636.88" y1="359.06" x2="637" y2="362.03" style="fill:none; stroke:#263238; stroke-linecap:round; stroke-linejoin:round;"></line></g><path d="M605.63,360.61s18.86,8.59,25.4,12.32c6.54,3.73,7.47,5.6,10.46,5.23,2.99-.37,33.61-19.23,33.61-19.23l-69.47,1.68Z" style="fill:#fff; stroke:#263238; stroke-linecap:round; stroke-linejoin:round;"></path><path d="M681.42,344.87c-11.36,0-20.57,6.34-20.57,14.16s9.21,14.16,20.57,14.16,20.57-6.34,20.57-14.16-9.21-14.16-20.57-14.16Zm0,24.15c-9.01,0-16.31-5.03-16.31-11.23s7.3-11.23,16.31-11.23,16.31,5.03,16.31,11.23-7.3,11.23-16.31,11.23Z" style="fill:#fff; stroke:#263238; stroke-linecap:round; stroke-linejoin:round;"></path><path d="M618.79,345.9c-11.36,0-20.57,6.34-20.57,14.16s9.21,14.16,20.57,14.16,20.57-6.34,20.57-14.16-9.21-14.16-20.57-14.16Zm0,24.15c-9.01,0-16.31-5.03-16.31-11.23s7.3-11.23,16.31-11.23,16.31,5.03,16.31,11.23-7.3,11.23-16.31,11.23Z" style="fill:#fff; stroke:#263238; stroke-linecap:round; stroke-linejoin:round;"></path><path d="M584.05,347.38s-.18,3.76-1.25,4.11-4.11,0-3.22,2.15c.89,2.15,3.22,1.79,4.65,2.5s2.5,3.22,2.5,3.22l6.44,.54,2.5,2.33s1.25,2.15,3.04,1.61c1.79-.54,.89-1.07,2.68-1.43s5.72,.89,5.72,.89l5.72,.54,3.04-1.61,4.65-1.07,7.51,1.43,5.37-.18,3.04,1.97s1.43,1.43,3.22-.36,1.61-2.5,5.54-1.79,6.62,3.4,9.3,1.61c2.68-1.79,5.9-2.5,6.26-1.25,.36,1.25,.54,1.97,3.58,2.15,3.04,.18,6.98-3.4,7.87-1.97,.89,1.43,3.4,1.79,3.4,1.79l4.11-2.86,6.44,1.79s5.9,1.25,6.44-.54c.54-1.79-.18-4.11,2.33-4.11s3.04,.72,4.47-.89c1.43-1.61,.89-3.58,.89-5.54s1.43-.89,2.86-2.86c1.43-1.97,2.86-2.86,.54-3.76-2.33-.89-3.04-.89-5.19,0-2.15,.89-114.46,1.61-114.46,1.61Z" style="fill:#CB71DF; stroke:#263238; stroke-linecap:round; stroke-linejoin:round;"></path><g><path d="M689.24,324.59c-7.1-6.42-16.47-10.6-25.51-12.56-9.26-2-18.84-2.06-28.27-1.28-19.68,1.63-47.44,7.26-52.09,30.05-2.96,14.5,12.85,18.13,23.82,19.02,10.34,.84,20.71,.03,31.06-.21,10.33-.24,20.62,.14,30.96,.12,5.78-.01,11.86,.6,17.44-1.21,9.88-3.21,15.83-13.61,10.84-23.35-2.06-4.02-4.9-7.55-8.25-10.57Z" style="fill:#ebebeb; stroke:#263238; stroke-linecap:round; stroke-linejoin:round;"></path><path d="M635.46,310.74c-18.07,1.49-42.93,6.37-50.48,24.8l-.46,4.68s1.48,8.1,9.71,11.86c12.54,5.73,17.37,5.46,42.69,3.72,25.31-1.74,37.72,.99,45.91-.99,8.19-1.99,11.66-6.7,12.16-14.15,.5-7.45-5.03-13.79-5.74-16.08-7.1-6.42-16.47-10.6-25.51-12.56-9.26-2-18.84-2.06-28.27-1.28Z" style="fill:#d6d6d6; stroke:#263238; stroke-linecap:round; stroke-linejoin:round;"></path></g><path d="M607.22,320.14c-.99,.64-2.34,2.38-1.85,3.15,.49,.77,2.64,.27,3.63-.36,.99-.64,1.4-1.78,.91-2.54-.49-.77-1.7-.88-2.69-.24Z" style="fill:#fff; stroke:#263238; stroke-linecap:round; stroke-linejoin:round;"></path><path d="M636.66,322.51c-.26,1.15,0,3.34,.9,3.54,.89,.2,2.07-1.66,2.32-2.81,.26-1.15-.25-2.25-1.14-2.45-.89-.2-1.82,.57-2.08,1.72Z" style="fill:#fff; stroke:#263238; stroke-linecap:round; stroke-linejoin:round;"></path><path d="M620.94,316.44c-.99,.64-2.34,2.38-1.85,3.15,.49,.77,2.64,.27,3.63-.36,.99-.64,1.4-1.78,.91-2.54-.49-.77-1.7-.88-2.69-.24Z" style="fill:#fff; stroke:#263238; stroke-linecap:round; stroke-linejoin:round;"></path><path d="M618.46,323.39c-.99,.64-2.34,2.38-1.85,3.15,.49,.77,2.64,.27,3.63-.36,.99-.64,1.4-1.78,.91-2.54-.49-.77-1.7-.88-2.69-.24Z" style="fill:#fff; stroke:#263238; stroke-linecap:round; stroke-linejoin:round;"></path><path d="M606.34,329.71c-.99,.64-2.34,2.38-1.85,3.15,.49,.77,2.64,.27,3.63-.36,.99-.64,1.4-1.78,.91-2.54-.49-.77-1.7-.88-2.69-.24Z" style="fill:#fff; stroke:#263238; stroke-linecap:round; stroke-linejoin:round;"></path><path d="M625.56,330.53c-.49,1.08-.67,3.27,.16,3.65,.83,.38,2.36-1.21,2.85-2.29,.49-1.08,.21-2.25-.62-2.63-.83-.38-1.9,.19-2.39,1.27Z" style="fill:#fff; stroke:#263238; stroke-linecap:round; stroke-linejoin:round;"></path><path d="M630.58,317.1c-.54,1.05-.83,3.23-.02,3.65,.81,.42,2.42-1.09,2.96-2.14,.54-1.05,.32-2.24-.49-2.66-.81-.42-1.91,.1-2.45,1.15Z" style="fill:#fff; stroke:#263238; stroke-linecap:round; stroke-linejoin:round;"></path><path d="M677.78,320.14c.99,.64,2.34,2.38,1.85,3.15-.49,.77-2.64,.27-3.63-.36-.99-.64-1.4-1.78-.91-2.54,.49-.77,1.7-.88,2.69-.24Z" style="fill:#fff; stroke:#263238; stroke-linecap:round; stroke-linejoin:round;"></path><path d="M664.05,316.44c.99,.64,2.34,2.38,1.85,3.15s-2.64,.27-3.63-.36c-.99-.64-1.4-1.78-.91-2.54,.49-.77,1.7-.88,2.69-.24Z" style="fill:#fff; stroke:#263238; stroke-linecap:round; stroke-linejoin:round;"></path><path d="M666.53,323.39c.99,.64,2.34,2.38,1.85,3.15-.49,.77-2.64,.27-3.63-.36-.99-.64-1.4-1.78-.91-2.54,.49-.77,1.7-.88,2.69-.24Z" style="fill:#fff; stroke:#263238; stroke-linecap:round; stroke-linejoin:round;"></path><path d="M651.24,323.49c.39,1.11,.39,3.32-.48,3.62-.86,.3-2.25-1.41-2.64-2.52-.39-1.11-.01-2.26,.85-2.57,.86-.3,1.88,.35,2.27,1.47Z" style="fill:#fff; stroke:#263238; stroke-linecap:round; stroke-linejoin:round;"></path><path d="M644.48,314.36c.39,1.11,.38,3.32-.48,3.62-.86,.3-2.25-1.41-2.64-2.52-.39-1.11-.01-2.26,.85-2.57,.86-.3,1.88,.35,2.27,1.47Z" style="fill:#fff; stroke:#263238; stroke-linecap:round; stroke-linejoin:round;"></path><path d="M643.69,334.93c-.64,.99-2.4,2.32-3.16,1.83-.76-.5-.25-2.64,.39-3.63,.64-.99,1.79-1.39,2.55-.89,.76,.5,.86,1.7,.22,2.69Z" style="fill:#fff; stroke:#263238; stroke-linecap:round; stroke-linejoin:round;"></path><path d="M678.66,329.71c.99,.64,2.34,2.38,1.85,3.15-.49,.77-2.64,.27-3.63-.36-.99-.64-1.4-1.78-.91-2.54,.49-.77,1.7-.88,2.69-.24Z" style="fill:#fff; stroke:#263238; stroke-linecap:round; stroke-linejoin:round;"></path><path d="M659.44,330.53c.49,1.08,.67,3.27-.16,3.65-.83,.38-2.36-1.21-2.85-2.29-.49-1.08-.21-2.25,.62-2.63,.83-.38,1.9,.19,2.39,1.27Z" style="fill:#fff; stroke:#263238; stroke-linecap:round; stroke-linejoin:round;"></path><path d="M654.41,317.1c.54,1.05,.83,3.23,.02,3.65s-2.42-1.09-2.96-2.14c-.54-1.05-.32-2.24,.49-2.66,.81-.42,1.91,.1,2.45,1.15Z" style="fill:#fff; stroke:#263238; stroke-linecap:round; stroke-linejoin:round;"></path></g><g><path d="M489.32,290.27c-30.23,0-54.74,24.51-54.74,54.74s24.51,54.74,54.74,54.74,54.74-24.51,54.74-54.74-24.51-54.74-54.74-54.74Zm0,72.82c-9.99,0-18.08-8.1-18.08-18.08s8.1-18.08,18.08-18.08,18.08,8.1,18.08,18.08-8.1,18.08-18.08,18.08Z" style="fill:#b8b8b8; stroke:#263238; stroke-linecap:round; stroke-linejoin:round;"></path><path d="M535.81,342.69c-2.42-13.3,1.51-16.92-2.12-23.57-3.63-6.65-25.39-14.51-29.01-18.13s-12.09-7.86-19.95-6.04c-7.86,1.81-19.04,3.02-22.36,5.44,0,0-4.23-.6-7.56,7.25-3.32,7.86-.3,18.13-5.44,22.97-5.14,4.84-14.51,10.58-9.97,20.25,4.53,9.67,9.37,12.09,9.97,18.13,.6,6.04,10.58,21.76,22.67,21.76s11.79-4.53,25.69,1.21,25.39-7.86,26.6-11.48c1.21-3.63,6.95-6.65,9.97-13,3.02-6.35,3.93-11.48,1.51-24.78Zm-46.49,20.41c-9.99,0-18.08-8.1-18.08-18.08s8.1-18.08,18.08-18.08,18.08,8.1,18.08,18.08-8.1,18.08-18.08,18.08Z" style="fill:#263238; stroke:#263238; stroke-linecap:round; stroke-linejoin:round;"></path><g><path d="M458.93,372.87c-.4,0-.81-.12-1.17-.38-.9-.64-1.1-1.89-.46-2.79l5.03-7c.64-.9,1.89-1.1,2.79-.46,.9,.64,1.1,1.89,.46,2.79l-5.03,7c-.39,.54-1,.83-1.63,.83Z" style="fill:#CB71DF;"></path><path d="M512.13,375.72c-.43,0-.87-.14-1.24-.43l-7.22-5.69c-.87-.68-1.02-1.94-.33-2.81,.68-.87,1.94-1.02,2.81-.33l7.22,5.69c.87,.68,1.02,1.94,.33,2.81-.39,.5-.98,.76-1.57,.76Z" style="fill:#CB71DF;"></path><path d="M482.36,386.44c-.57,0-1.13-.24-1.52-.7-.72-.84-.62-2.1,.22-2.82l7.44-6.35c.84-.72,2.1-.62,2.82,.22,.72,.84,.62,2.1-.22,2.82l-7.44,6.35c-.38,.32-.84,.48-1.3,.48Z" style="fill:#CB71DF;"></path><path d="M483.67,373.31c-.22,0-.45-.04-.68-.12l-5.47-1.97c-1.04-.37-1.58-1.52-1.2-2.56,.37-1.04,1.52-1.58,2.56-1.2l5.47,1.97c1.04,.37,1.58,1.52,1.2,2.56-.29,.82-1.06,1.32-1.88,1.32Z" style="fill:#CB71DF;"></path><path d="M517.82,351.2c-.73,0-1.44-.4-1.79-1.11-.49-.99-.09-2.19,.89-2.68l4.82-2.41c.99-.5,2.19-.09,2.68,.89,.49,.99,.09,2.19-.89,2.68l-4.82,2.41c-.29,.14-.59,.21-.89,.21Z" style="fill:#CB71DF;"></path><path d="M528.76,369.59c-.47,0-.95-.17-1.33-.5l-7.88-7c-.83-.73-.9-2-.17-2.82,.73-.83,2-.9,2.82-.17l7.88,7c.83,.73,.9,2,.17,2.82-.4,.44-.94,.67-1.5,.67Z" style="fill:#CB71DF;"></path><path d="M517.82,336.97c-.36,0-.72-.09-1.04-.3-.94-.58-1.24-1.81-.66-2.75l4.16-6.79c.58-.94,1.81-1.24,2.75-.66,.94,.58,1.24,1.81,.66,2.75l-4.16,6.79c-.38,.62-1.03,.96-1.71,.96Z" style="fill:#CB71DF;"></path><path d="M509.72,329.75c-.45,0-.91-.15-1.28-.46l-3.94-3.28c-.85-.71-.96-1.97-.26-2.82,.71-.85,1.97-.96,2.82-.26l3.94,3.28c.85,.71,.96,1.97,.26,2.82-.4,.47-.96,.72-1.54,.72Z" style="fill:#CB71DF;"></path><path d="M499.65,312.68c-.82,0-1.58-.5-1.88-1.31-.38-1.04,.15-2.19,1.19-2.57l6.57-2.41c1.04-.38,2.19,.15,2.57,1.19,.38,1.04-.15,2.19-1.19,2.57l-6.57,2.41c-.23,.08-.46,.12-.69,.12Z" style="fill:#CB71DF;"></path><path d="M487.83,318.81c-.64,0-1.27-.31-1.66-.88l-4.16-6.13c-.62-.91-.38-2.16,.53-2.78,.91-.62,2.16-.38,2.78,.53l4.16,6.13c.62,.91,.38,2.16-.53,2.78-.34,.23-.73,.34-1.12,.34Z" style="fill:#fff;"></path><path d="M466.81,325.59c-1.01,0-1.88-.76-1.99-1.79-.12-1.1,.68-2.08,1.78-2.2l8.32-.88c1.11-.11,2.08,.68,2.2,1.78,.12,1.1-.68,2.08-1.78,2.2l-8.32,.88c-.07,0-.14,.01-.21,.01Z" style="fill:#CB71DF;"></path><path d="M464.85,314.21c-.23,0-.46-.04-.69-.12-1.04-.38-1.57-1.53-1.18-2.57l3.72-10.07c.38-1.04,1.54-1.56,2.57-1.18,1.04,.38,1.57,1.53,1.18,2.57l-3.72,10.07c-.3,.81-1.06,1.31-1.88,1.31Z" style="fill:#fff;"></path><path d="M458.28,341.35c-.38,0-.77-.11-1.11-.34l-4.6-3.07c-.92-.61-1.17-1.85-.55-2.77,.61-.92,1.85-1.17,2.77-.55l4.6,3.07c.92,.61,1.17,1.85,.55,2.77-.39,.58-1.02,.89-1.67,.89Z" style="fill:#fff;"></path><path d="M451.93,355.58c-.71,0-1.41-.38-1.77-1.06-.52-.97-.15-2.19,.82-2.71l6.57-3.5c.98-.52,2.19-.15,2.71,.82,.52,.97,.15,2.19-.82,2.71l-6.57,3.5c-.3,.16-.62,.24-.94,.24Z" style="fill:#CB71DF;"></path><path d="M519.79,320.78c-.78,0-1.51-.46-1.84-1.21l-1.31-3.06c-.44-1.02,.04-2.19,1.05-2.63,1.02-.44,2.19,.04,2.63,1.05l1.31,3.06c.44,1.02-.04,2.19-1.05,2.63-.26,.11-.52,.16-.79,.16Z" style="fill:#CB71DF;"></path><path d="M506,391.26c-.38,0-.77-.11-1.11-.34-.92-.61-1.17-1.85-.55-2.77l3.94-5.91c.61-.92,1.85-1.17,2.77-.55,.92,.61,1.17,1.85,.55,2.77l-3.94,5.91c-.38,.58-1.02,.89-1.67,.89Z" style="fill:#fff;"></path><path d="M448.43,350.11c-.45,0-.91-.15-1.28-.46l-5.25-4.38c-.85-.71-.96-1.97-.26-2.82,.71-.85,1.97-.96,2.82-.26l5.25,4.38c.85,.71,.96,1.97,.26,2.82-.4,.47-.96,.72-1.54,.72Z" style="fill:#CB71DF;"></path><path d="M469.01,384.48c-.51,0-1.02-.2-1.41-.59l-5.69-5.69c-.78-.78-.78-2.05,0-2.83s2.05-.78,2.83,0l5.69,5.69c.78,.78,.78,2.05,0,2.83-.39,.39-.9,.59-1.41,.59Z" style="fill:#fff;"></path><path d="M531.61,347.26c-.07,0-.13,0-.2,0-1.1-.11-1.9-1.09-1.79-2.19l.87-8.76c.11-1.1,1.08-1.9,2.19-1.79,1.1,.11,1.9,1.09,1.79,2.19l-.87,8.76c-.1,1.03-.97,1.8-1.99,1.8Z" style="fill:#fff;"></path><path d="M470.1,359.3c-.92,0-1.74-.63-1.95-1.57l-1.75-7.88c-.24-1.08,.44-2.15,1.52-2.39,1.07-.24,2.15,.44,2.39,1.52l1.75,7.88c.24,1.08-.44,2.15-1.52,2.39-.15,.03-.29,.05-.44,.05Z" style="fill:#fff;"></path><path d="M506,361.27c-.64,0-1.27-.31-1.66-.88-.62-.91-.38-2.16,.53-2.78l5.47-3.72c.91-.62,2.16-.38,2.78,.53,.62,.91,.38,2.16-.53,2.78l-5.47,3.72c-.34,.23-.74,.35-1.12,.35Z" style="fill:#fff;"></path></g></g></g><g id="freepik--Healthy_Food--inject-2"><g><polygon points="101.2 165.64 76.22 207.71 127.5 207.71 101.2 165.64" style="fill:#CB71DF; stroke:#263238; stroke-linecap:round; stroke-linejoin:round;"></polygon><polygon points="101.2 165.64 178.78 165.64 206.33 207.01 127.5 207.71 101.2 165.64" style="fill:#CB71DF; stroke:#263238; stroke-linecap:round; stroke-linejoin:round;"></polygon><polygon points="101.2 165.64 101.2 156.32 179 156.32 178.78 165.64 101.2 165.64" style="fill:#CB71DF; stroke:#263238; stroke-linecap:round; stroke-linejoin:round;"></polygon><polygon points="76.22 207.71 76.22 394.15 127.7 394.15 127.5 207.71 76.22 207.71" style="fill:#fff; stroke:#263238; stroke-linecap:round; stroke-linejoin:round;"></polygon><polygon points="127.7 394.15 206.53 394.15 206.33 207.01 127.5 207.71 127.7 394.15" style="fill:#fff; stroke:#263238; stroke-linecap:round; stroke-linejoin:round;"></polygon><g><path d="M172.19,188.68c-1.88,5.66-9.01,8.4-15.93,6.1-6.92-2.29-11.01-8.74-9.14-14.41s9.01-8.4,15.93-6.1c6.92,2.29,11.01,8.74,9.14,14.41Z" style="fill:#fff; stroke:#263238; stroke-linecap:round; stroke-linejoin:round;"></path><ellipse cx="161.03" cy="182.47" rx="10.8" ry="13.2" transform="translate(-62.81 277.99) rotate(-71.68)" style="fill:#fff; stroke:#263238; stroke-linecap:round; stroke-linejoin:round;"></ellipse></g><path d="M206.33,207.01l-78.83,.7,.06,60.79c4.41-7.54,25.5-41.76,43.82-39.66,14.26,1.63,27.95,20.48,35.01,31.89l-.06-53.72Z" style="fill:#CB71DF; stroke:#263238; stroke-linecap:round; stroke-linejoin:round;"></path><path d="M127.5,207.71h-51.28v54.26l.54,.36s12.93-34.09,22.33-32.32c9.4,1.76,28.47,38.49,28.47,38.49l-.06-60.79Z" style="fill:#CB71DF; stroke:#263238; stroke-linecap:round; stroke-linejoin:round;"></path><polyline points="76.22 207.71 107.91 188.28 101.2 165.64 127.5 207.71 107.91 188.28" style="fill:#263238; stroke:#263238; stroke-linecap:round; stroke-linejoin:round;"></polyline></g><g><g><path d="M373.98,382.68s-30.08,23.08-74.25,18.1l52.8-19.26,21.45,1.16Z" style="fill:#263238; stroke:#263238; stroke-linecap:round; stroke-linejoin:round;"></path><path d="M292.97,399.7c41.89,6.04,60.76-13.73,60.76-13.73l20.25-3.29-60.76-115.84h-12.89l-64.35,103.51c6.98,7.9,25.23,24.77,56.99,29.35Z" style="fill:#CB71DF; stroke:#263238; stroke-linecap:round; stroke-linejoin:round;"></path></g><path d="M292.97,399.7c41.89,6.04,60.76-13.73,60.76-13.73l20.25-3.29-7.86-14.98-.43,.16-18.28,4.38s-17.63,23.07-63.2,11.54c-25.85-6.54-36.89-16.61-41.6-24.11l-6.64,10.68c6.98,7.9,25.23,24.77,56.99,29.35Z" style="fill:#878787; stroke:#263238; stroke-linecap:round; stroke-linejoin:round;"></path><path d="M365.7,367.85l-18.28,4.38s-17.63,23.07-63.2,11.54c-25.85-6.54-36.89-16.61-41.6-24.11l-5.17,8.31c7.89,8.39,25.78,23.45,55.51,27.74,41.89,6.04,59.29-12.81,59.29-12.81l19.8-3.89-5.93-11.31-.43,.16Z" style="fill:#fff; stroke:#263238; stroke-linecap:round; stroke-linejoin:round;"></path><polygon points="300.33 266.84 313.22 266.84 373.98 382.68 353.73 385.97 300.33 266.84" style="fill:none; stroke:#263238; stroke-linecap:round; stroke-linejoin:round;"></polygon><path d="M312.71,338.5s3.79,9.99,2.59,11.89c-1.2,1.9-3.79,2.62-4.59-1.19-.8-3.81-1.2-14.03,1.99-10.7Z" style="fill:#263238; stroke:#263238; stroke-linecap:round; stroke-linejoin:round;"></path><path d="M291.9,341.51s.13,10.96-1.61,12.14c-1.73,1.17-4.35,.59-3.81-3.28,.54-3.87,3.6-13.44,5.41-8.86Z" style="fill:#263238; stroke:#263238; stroke-linecap:round; stroke-linejoin:round;"></path><path d="M281.82,321.22s.13,10.96-1.61,12.14-4.35,.59-3.81-3.28c.54-3.87,3.6-13.44,5.41-8.86Z" style="fill:#263238; stroke:#263238; stroke-linecap:round; stroke-linejoin:round;"></path><path d="M300.16,305.96s1.63,10.79,.08,12.29c-1.55,1.5-4.21,1.43-4.21-2.49,0-3.92,1.71-13.96,4.12-9.8Z" style="fill:#263238; stroke:#263238; stroke-linecap:round; stroke-linejoin:round;"></path></g><g><g><g><path d="M85.47,331.76c8.7-7.79,10.78-17.64,26.07-19.26,15.29-1.62,43.5,5.06,57.52,13.83,14.02,8.77,22.05,16.25,32.5,27.18-19.89-3.97-37.54-16.49-57.36-19.65-19.83-3.16-38.65-.48-58.74-2.11Z" style="fill:#CB71DF;"></path><path d="M85.47,331.76c8.7-7.79,10.78-17.64,26.07-19.26,15.29-1.62,43.5,5.06,57.52,13.83,14.02,8.77,22.05,16.25,32.5,27.18-19.89-3.97-37.54-16.49-57.36-19.65-19.83-3.16-38.65-.48-58.74-2.11Z" style="opacity:.12;"></path><path d="M85.47,331.76c8.7-7.79,10.78-17.64,26.07-19.26,15.29-1.62,43.5,5.06,57.52,13.83,14.02,8.77,22.05,16.25,32.5,27.18-19.89-3.97-37.54-16.49-57.36-19.65-19.83-3.16-38.65-.48-58.74-2.11Z" style="fill:none; stroke:#263238; stroke-linecap:round; stroke-linejoin:round; stroke-width:.75px;"></path><path d="M95.73,330.3c2.17-3,4.74-5.64,7.23-8.37" style="fill:none; stroke:#263238; stroke-linecap:round; stroke-linejoin:round; stroke-width:.75px;"></path><path d="M107.7,327.2c2.68-3.51,5.43-6.96,8.17-10.41" style="fill:none; stroke:#263238; stroke-linecap:round; stroke-linejoin:round; stroke-width:.75px;"></path><path d="M114.38,329.55c1.62-2.47,3.2-4.96,4.86-7.41" style="fill:none; stroke:#263238; stroke-linecap:round; stroke-linejoin:round; stroke-width:.75px;"></path><path d="M126.49,329.22c2.59-3.57,5.3-7.06,7.94-10.59" style="fill:none; stroke:#263238; stroke-linecap:round; stroke-linejoin:round; stroke-width:.75px;"></path><path d="M144.15,330.99c1.74-3.15,3.53-6.27,5.19-9.46" style="fill:none; stroke:#263238; stroke-linecap:round; stroke-linejoin:round; stroke-width:.75px;"></path><path d="M153.27,333.69c1.74-2.76,3.33-5.61,4.94-8.44" style="fill:none; stroke:#263238; stroke-linecap:round; stroke-linejoin:round; stroke-width:.75px;"></path><path d="M163.6,331.75c.75-1.41,1.51-2.81,2.26-4.22" style="fill:none; stroke:#263238; stroke-linecap:round; stroke-linejoin:round; stroke-width:.75px;"></path><path d="M120.39,319.73c.66-.88,1.31-1.77,1.97-2.65" style="fill:none; stroke:#263238; stroke-linecap:round; stroke-linejoin:round; stroke-width:.75px;"></path><path d="M173.82,336.16c.55-.68,1.1-1.36,1.61-2.07" style="fill:none; stroke:#263238; stroke-linecap:round; stroke-linejoin:round; stroke-width:.75px;"></path></g><path d="M26.33,394.18c32.33,3.01,66.35,8.13,98.64,8.88,32.29,.75,63.83-8.37,91.03-20.79,9.84-4.49,9.94,1.1,15.96,6.05,6.01,4.95,15.39,11.23,23.13,12.4,7.74,1.17,13.02,.71,10.18-8.15-2.84-8.86-19.81-21.39-14.21-32.07,5.59-10.68,17.11-1.96,25.4-9.88,8.29-7.91-9-16.36-21.49-14.37-12.49,1.99-21.37,12.86-35.91,19.99-14.54,7.13-33.29-14.04-52.04-21.6-18.76-7.55-67.8-9.14-87.73,.39-19.93,9.53-43.99,25.11-52.58,37.21-8.59,12.11-1.96,10.29,1.2,16.64-3.15,.18-4.34,2.46-1.57,5.29Z" style="fill:#CB71DF; stroke:#263238; stroke-linecap:round; stroke-linejoin:round; stroke-width:.75px;"></path><path d="M255.26,336.36c-11.04,2.52-25.53,11.36-34.92,20.36-.44,.42-.92,.4-1.11,.8,4.92,1.36,17.66,2.36,16.75,8.82-1.15,8.15-8.74,9.56-14.66,12.48-.31,.54-.31,1.33-.55,1.9,5.31,.88,7.53,3.08,11.36,7.4,5.29,5.96,15.5,11.04,23.03,12.53,7.53,1.49,13.02,.64,10.15-8.1-2.87-8.74-19.92-21.45-14.2-32.05,5.72-10.6,16.72-2.11,25.46-9.85,8.74-7.74-10.26-16.81-21.29-14.29Z" style="fill:#CB71DF;"></path><path d="M255.26,336.36c-11.04,2.52-25.53,11.36-34.92,20.36-.44,.42-.92,.4-1.11,.8,4.92,1.36,17.66,2.36,16.75,8.82-1.15,8.15-8.74,9.56-14.66,12.48-.31,.54-.31,1.33-.55,1.9,5.31,.88,7.53,3.08,11.36,7.4,5.29,5.96,15.5,11.04,23.03,12.53,7.53,1.49,13.02,.64,10.15-8.1-2.87-8.74-19.92-21.45-14.2-32.05,5.72-10.6,16.72-2.11,25.46-9.85,8.74-7.74-10.26-16.81-21.29-14.29Z" style="opacity:.12;"></path><path d="M255.26,336.36c-11.04,2.52-25.53,11.36-34.92,20.36-.44,.42-.92,.4-1.11,.8,4.92,1.36,17.66,2.36,16.75,8.82-1.15,8.15-8.74,9.56-14.66,12.48-.31,.54-.31,1.33-.55,1.9,5.31,.88,7.53,3.08,11.36,7.4,5.29,5.96,15.5,11.04,23.03,12.53,7.53,1.49,13.02,.64,10.15-8.1-2.87-8.74-19.92-21.45-14.2-32.05,5.72-10.6,16.72-2.11,25.46-9.85,8.74-7.74-10.26-16.81-21.29-14.29Z" style="fill:none; stroke:#263238; stroke-linecap:round; stroke-linejoin:round; stroke-width:.75px;"></path><path d="M226.87,377.53c4.85,2.31,9.51,4.86,14.07,7.69" style="fill:none; stroke:#263238; stroke-linecap:round; stroke-linejoin:round; stroke-width:.75px;"></path><path d="M231.08,374.42c2.62,1.1,5.17,2.32,7.69,3.62" style="fill:none; stroke:#263238; stroke-linecap:round; stroke-linejoin:round; stroke-width:.75px;"></path><path d="M236.07,370.52c2.83,.8,5.6,1.73,8.38,2.7" style="fill:none; stroke:#263238; stroke-linecap:round; stroke-linejoin:round; stroke-width:.75px;"></path><path d="M236.37,366.65c2.85-.58,5.74-1.05,8.63-1.42" style="fill:none; stroke:#263238; stroke-linecap:round; stroke-linejoin:round; stroke-width:.75px;"></path><path d="M233.96,360.46c3.03-1.65,6.09-3.25,9.18-4.79" style="fill:none; stroke:#263238; stroke-linecap:round; stroke-linejoin:round; stroke-width:.75px;"></path><path d="M227.12,358.59c5.06-4.65,10.12-9.3,15.31-13.81" style="fill:none; stroke:#263238; stroke-linecap:round; stroke-linejoin:round; stroke-width:.75px;"></path><path d="M26.12,372.72c-5.28,9.26-3.38,11.55,1.92,16.04-3.5,.44-4.37,2.57-1.75,5.37,11.94,1.4,23.81,1.79,35.9,2.43,6.79-7.77,16.82-17.81,12.57-29.04-3.24-8.57-13.26-13.89-21.63-16.96-8.16,3.53-24.08,16.99-27.03,22.16Z" style="fill:#CB71DF;"></path><path d="M26.12,372.72c-5.28,9.26-3.38,11.55,1.92,16.04-3.5,.44-4.37,2.57-1.75,5.37,11.94,1.4,23.81,1.79,35.9,2.43,6.79-7.77,16.82-17.81,12.57-29.04-3.24-8.57-13.26-13.89-21.63-16.96-8.16,3.53-24.08,16.99-27.03,22.16Z" style="opacity:.12;"></path><path d="M26.12,372.72c-5.28,9.26-3.38,11.55,1.92,16.04-3.5,.44-4.37,2.57-1.75,5.37,11.94,1.4,23.81,1.79,35.9,2.43,6.79-7.77,16.82-17.81,12.57-29.04-3.24-8.57-13.26-13.89-21.63-16.96-8.16,3.53-24.08,16.99-27.03,22.16Z" style="fill:none; stroke:#263238; stroke-linecap:round; stroke-linejoin:round; stroke-width:.75px;"></path><path d="M34.94,371.42c2.3-.23,4.88,.85,5.09,3.36,.21,2.51-2.22,4.11-4.44,4.34-2.22,.22-4.9-.86-5.17-3.33-.27-2.48,2.22-4.14,4.52-4.37Z" style="fill:#fff; stroke:#263238; stroke-linecap:round; stroke-linejoin:round; stroke-width:.75px;"></path><path d="M34.37,373.43c1.01-.11,2.09,.38,2.18,1.48,.09,1.1-.88,1.78-1.88,1.89-1,.11-2.17-.36-2.26-1.46-.09-1.1,.95-1.81,1.96-1.92Z" style="fill:#263238;"></path><g><path d="M89.05,367.57c2.79,3.66,10.62,7.23,14.16,8.63,3.54,1.39,15.23,7.83,17.24,4.06,2.01-3.77,3.05-14.63-3.15-16.88-6.2-2.25-19.13-.9-26.27-.5" style="fill:#CB71DF;"></path><path d="M89.05,367.57c2.79,3.66,10.62,7.23,14.16,8.63,3.54,1.39,15.23,7.83,17.24,4.06,2.01-3.77,3.05-14.63-3.15-16.88-6.2-2.25-19.13-.9-26.27-.5" style="opacity:.12;"></path><path d="M89.05,367.57c2.79,3.66,10.62,7.23,14.16,8.63,3.54,1.39,15.23,7.83,17.24,4.06,2.01-3.77,3.05-14.63-3.15-16.88-6.2-2.25-19.13-.9-26.27-.5" style="fill:none; stroke:#263238; stroke-linecap:round; stroke-linejoin:round; stroke-width:.75px;"></path><path d="M87.45,368c2.33-1.04,3.21-4.84,2.71-6.54-.49-1.69-1.91-3.03-3.07-2.33" style="fill:none; stroke:#263238; stroke-linecap:round; stroke-linejoin:round; stroke-width:.75px;"></path><path d="M88.92,367.5c5.68,2.35,11.44,4.53,17.12,6.89" style="fill:none; stroke:#263238; stroke-linecap:round; stroke-linejoin:round; stroke-width:.75px;"></path><path d="M92.24,367.08c5.85,.82,11.73,1.76,17.32,3.71" style="fill:none; stroke:#263238; stroke-linecap:round; stroke-linejoin:round; stroke-width:.75px;"></path><path d="M90.96,365.32c3.01-.17,6.01-.36,9.02-.52" style="fill:none; stroke:#263238; stroke-linecap:round; stroke-linejoin:round; stroke-width:.75px;"></path></g></g><path d="M128.7,373.71c14.01-.85,50.26,4.89,58.26,6.78,8,1.89,37.11-6.32,27.9-9.53-9.22-3.2-51.23-6.74-63.82-9.48-12.59-2.74-35.37,3.68-22.34,12.23Z" style="fill:#fff;"></path><path d="M39.48,365.24c4.66-2.5,9.71-3.25,14.75-3.26,5.04-.02,10.9,8.74,14.69,7.17,3.78-1.57-3.62-7.12-6.11-9.22-2.49-2.1-10.57-5.22-13.81-3.06-3.24,2.16-12.4,7.03-9.52,8.38Z" style="fill:#fff;"></path><path d="M68.5,351.04c11.03-13.05,34.69-11.76,47.52-13.92,12.82-2.16,59.74,12.68,53.37,5.56-6.37-7.12-43.42-12.02-57.19-10.08-13.77,1.94-33.8,3.52-42.8,10.54-9,7.02-5.94,4.83-.89,7.9Z" style="fill:#fff;"></path></g><g><path d="M169.43,260.96s-8.12,30.95-9.07,43.9-2.67,35.11,2.07,53.86c4.73,18.76,13.53,31.4,19.87,37.12,6.34,5.72,16.32,4.7,17.51,4.71,1.18,0-17.21-18.75-19.79-29.03-2.57-10.28-12.53-91.24-8.88-105.4,3.65-14.16-1.18-7.43-1.71-5.17Z" style="fill:#263238; stroke:#263238; stroke-linecap:round; stroke-linejoin:round;"></path><path d="M261.74,316.1s-2.41-19.07-7.98-34c-5.56-14.93-13.85-26.29-23.39-40.69-9.54-14.39-20.3-16.65-23.18-11.7-2.87,4.94-1.68,10.01,2.65,19.54,4.33,9.53,12.98,28.6,13.86,31.35,.88,2.75-.28,5.43-.78,10.4s-1.99,6.51-3.57,9.76c-1.58,3.25-1.74,5.8-2.28,8.07-.54,2.27-1.21,3.54-2.22,6.04-1.01,2.5-1.45,4.24-2.73,4.76-1.28,.51-1.33,1.36-2.74-.3-1.41-1.66-10.87-20.46-12.99-27.42-2.12-6.97-3.34-14.73-3.34-14.73,0,0-1.24-24.12-.09-33.05,1.15-8.93-4.43-15.26-10.78-13.55-6.35,1.7-9.26,5.13-10.43,16.42-1.17,11.29-8.74,37.62-8.84,58.04s4.15,53.07,8.88,66.77c4.72,13.7,14.82,23.46,19.62,26.52,4.8,3.06,9.57,3.43,13.36,2.74,3.79-.68,13.4-3.16,18.47-4.36,5.07-1.19,13.51-4.87,18.32-9.23,4.81-4.36,7.38-.32,13.45-16.5,6.07-16.17,7.28-38.43,7.61-44.72,.33-6.29-.87-10.17-.87-10.17Z" style="fill:#fff; stroke:#263238; stroke-linecap:round; stroke-linejoin:round;"></path><g><path d="M211.76,363.72c-.08-.78-.17-1.65-.27-2.66-7.22,1.2-20.76,2.33-32.89-2.96-2.59-1.13-4.94-2.29-7.1-3.46,.75,4.25,2.42,10.23,4.48,16.01,1.27,.05,2.6,.07,4.01,.04,10.88-.2,23.01-3.78,31.75-6.97Z" style="fill:#CB71DF;"></path><path d="M212.78,378.05l.55-3.45s-.25-1.36-.5-2.87c-9.74,4.07-23.5,8.05-32.46,9.3,1.41,2.59,3.2,4.95,5.15,7.05,8.85-1.31,18.5-3.71,25.76-6.04l1.5-4Z" style="fill:#CB71DF;"></path><path d="M189.02,303.68c-2.82,1.8-4.25,5.44-4.25,10.81,0,4.53,1.44,7.65,3.69,9.79l1.5-.36-1.01,.8c4.05,3.45,10.34,4.13,15.67,4.29-.03-.48-.04-.96-.02-1.46,.19-6.1,1.98-5.33,1.98-5.33,0,0-.92-3.08-1.2-3.89s-4.71-8.64-5.6-10.21c-.34-.61-1.01-2.85-1.7-5.36-2.81-.6-6.36-.8-9.05,.92Z" style="fill:#CB71DF;"></path><path d="M212.55,370.02c-.05-.3-.09-.59-.12-.86-.15-1.11-.3-2.24-.47-3.73-8.85,3.2-20.98,6.73-31.91,6.93-1.17,.02-2.31,.01-3.43-.02,.94,2.51,1.94,4.95,2.96,7.14,9.55-1.16,23.52-5.44,32.98-9.46Z" style="fill:#CB71DF;"></path><path d="M187.59,325.79l-.62,.49c-.08,.07-8.35,6.68-5.7,14.73,1.18,3.59,6.24,7.44,13.2,10.06,6.34,2.38,12.48,3.09,15.98,1.93-.28-1.88-.49-3.24-.49-3.24,0,0,2.32-6.55,1.08-5.71s-3.46-5.6-3.46-5.6c0,0-2.14-3.24-2.8-7.77-5.62-.16-12.68-.9-17.2-4.89Z" style="fill:#CB71DF;"></path><path d="M197.91,397.42c.43,.2,.84,.39,1.21,.53,4.81,1.88,9.88,.69,10.83-.96,.82-1.42-.31-2.57-.72-4.25-1.65,.69-3.34,1.38-5.02,2.06-1.92,.77-4.17,1.69-6.29,2.62Z" style="fill:#CB71DF;"></path><path d="M171.62,329.37c6.99-2.72,14.55-4.54,14.64-4.56l.28-.07c-2.11-2.36-3.44-5.65-3.44-10.25,0-5.98,1.69-10.09,5.02-12.22,2.9-1.85,6.49-1.84,9.46-1.32-.53-2.02-1.04-4.01-1.36-5.31-4.07,.4-9.31,2.68-14.57,9.95-3.95,5.46-7.82,11.04-11.24,16.07,.85,2.43,1.22,4.84,1.21,7.7Z" style="fill:#CB71DF;"></path><path d="M183.58,327.23c-2.98,.82-7.67,2.21-12.02,3.96-.04,.81-.11,1.65-.2,2.55-.66,6.33-.09,11.82-.26,16.73-.02,.57,.02,1.28,.11,2.1,2.41,1.35,5.09,2.7,8.07,4,11.81,5.16,25.06,4.01,32.04,2.83-.17-1.51-.4-3.19-.62-4.72-4.63,1.38-11.69-.13-16.82-2.05-3.65-1.37-6.77-3.05-9.18-4.88-2.57-1.96-4.32-4.09-5.02-6.22-2.04-6.2,1.36-11.46,3.9-14.3Z" style="fill:#CB71DF;"></path><path d="M180.3,304.62c5.47-7.56,11.07-10.05,15.53-10.54l-1.75-4.57c-3.16,1.03-6.97,2.59-11.18,4.99-4.19,2.38-10.19,7.86-16.2,13.94,.14,1.91,.66,6.56,2.47,10.25,.18,.37,.35,.74,.51,1.11,3.27-4.79,6.91-10.04,10.63-15.17Z" style="fill:#CB71DF;"></path><path d="M171.46,274.8c6.99-8.54,13.08-18.06,16.83-24.29,.33-3.52,.6-6.52,.6-6.52,0,0,.06-.19,.14-.51-3.99,3.27-9.64,8.07-15.27,13.4-.09,1.31-.27,3.96-.52,7.28-.37,4.77-.8,5.34-1.48,8.97-.08,.44-.18,1-.29,1.67Z" style="fill:#CB71DF;"></path><path d="M203.58,393.25c1.84-.75,3.71-1.5,5.5-2.26,.05-1.71,.51-2.89,.51-2.89l1.1-4.11c-6.77,2.12-15.44,4.31-23.69,5.61,3.05,2.97,6.32,5.31,9.01,6.83,2.13-.97,4.67-2.01,7.57-3.18Z" style="fill:#CB71DF;"></path><path d="M170.95,278.01c-.16,1.06-.34,2.21-.53,3.43,5.95-5.16,12.07-10.21,17.03-13.72-.25-2.61-.42-5.45-.2-7.15,.17-1.31,.42-3.7,.67-6.27-4.17,6.72-10.23,15.8-16.98,23.71Z" style="fill:#CB71DF;"></path><path d="M168.73,291.87c5.96-4.17,12.48-8.13,17.98-11.47,1.05-.64,2.06-1.25,3.02-1.84l-1.53-4.8s-.28-1.81-.55-4.16c-5.14,3.72-11.53,9.07-17.64,14.41-.41,2.59-.84,5.31-1.29,7.85Z" style="fill:#CB71DF;"></path><path d="M193.43,287.95l-2.6-5.93-.58-1.81c-.86,.52-1.75,1.06-2.68,1.63-5.92,3.59-13.01,7.9-19.27,12.39-.15,.83-.31,1.63-.46,2.38-.96,4.73-1.19,7.86-1.23,9.52,5.72-5.7,11.36-10.75,15.45-13.07,4.29-2.44,8.15-4.04,11.37-5.1Z" style="fill:#CB71DF;"></path><path d="M189.59,240.87c.26-1.66,.34-3.52-.36-4.35-1.41-1.66-6.73-3.64-10.26,.21-3.53,3.85-1.22,4.72-2.15,9.06-.58,2.7-1.6,5.99-2.29,8.08,5.83-5.39,11.46-10.09,15.06-13.01Z" style="fill:#CB71DF;"></path></g><g><path d="M210.57,244.87c1.23,2.86,2.76,6.37,4.36,10.02,6.41,1.49,14.68,3.41,22.27,5.2-1.57-2.78-3.12-5.79-4.63-9.14-.82-.26-1.67-.53-2.56-.8-8.09-2.53-14.49-4.11-19.44-5.27Z" style="fill:#CB71DF;"></path><path d="M208.51,232.78c-.71,1.39-1,3.15-.59,5.21,5.15,.11,11.96,.82,18.93,1.95-2.39-3.82-4.56-6.32-6.48-7.95-4.54-.16-8.66,.26-11.85,.79Z" style="fill:#CB71DF;"></path><path d="M247.94,277.07c-2.99-4.66-6.3-9.36-9.6-14.99-7.52-1.77-15.9-3.73-22.57-5.28,1.7,3.87,3.42,7.81,4.92,11.22,.42,.14,.85,.27,1.29,.41,7.28,2.32,16.95,5.4,25.97,8.64Z" style="fill:#CB71DF;"></path><path d="M208.41,239.74c.07,.19,.14,.37,.22,.56,.31,.74,.69,1.64,1.12,2.66,5.13,1.2,11.95,2.83,20.76,5.59,.38,.12,.75,.24,1.12,.35-1.27-2.71-2.49-5.06-3.66-7.08-7.36-1.2-14.42-1.89-19.57-2.08Z" style="fill:#CB71DF;"></path><path d="M240.17,354.03c12.6-9.12,12.26-12.5,11.87-16.42-.14-1.4-.28-2.85,.05-4.63,.08-.45,.11-.73,.11-.91-1.17,.51-4.32,3.46-7.37,6.33-3.86,3.62-8.66,8.13-14.5,12.86-5.47,4.43-11.01,7.42-15.93,9.44-.03,2.53,.08,4.93,.49,6.78,.07,.3,.13,.61,.2,.92,.78-.4,1.63-.82,2.55-1.28,6.01-2.99,14.23-7.09,22.52-13.08Z" style="fill:#CB71DF;"></path><path d="M235.49,344.71c-2.75,1.95-5.49,3.3-7.22,4.06-2.68,1.18-8.14,4.04-13.66,7.03-.06,1-.12,2.02-.16,3.04,4.64-1.96,9.8-4.79,14.83-8.86,2.21-1.79,4.28-3.56,6.21-5.26Z" style="fill:#CB71DF;"></path><path d="M260.26,337.55c.04-1.18,.11-2.23,.19-3.23-3.41-8.86-7.94-17.84-13.32-22.06-4.32-3.39-6.48-6.32-8.05-8.45-2.95-4-3.56-4.83-14.4-.26l-.64,.27c-.84,2.86-1.53,5.92-2,8.28,3.45-2.77,7.93-5.62,11.94-5.75,2.08-.07,3.86,.6,5.29,1.98,2.92,2.83,4.19,5.5,3.79,7.94-.51,3.05-3.46,5.09-6.08,6.44,1.58,.08,3.02,.39,4.21,1.05,1.51,.84,2.49,2.16,2.91,3.93,1.01,4.27-.1,8.38-3.29,12.22,1.02-.95,1.99-1.86,2.91-2.72,6.06-5.69,8.05-7.46,9.44-6.7,.06,.03,.11,.07,.16,.11,.84,.64,.57,2.07,.45,2.7-.29,1.54-.16,2.87-.03,4.15,.42,4.25,.82,8.26-12.56,17.93-8.4,6.08-16.7,10.21-22.76,13.23-.95,.48-1.97,.98-2.95,1.48,.28,1.4,.54,2.76,.73,3.83,8.78-1.44,25.06-6.42,39.44-13.62,2.33-8.18,4.44-17.12,4.64-22.76Z" style="fill:#CB71DF;"></path><path d="M219.37,384.46c7.39-.03,17.7-.07,28.22-3.14,.86-.85,1.5-1.59,1.77-2.15,.76-1.57,3.23-8.55,5.62-16.69-13.15,6.38-29.08,11.66-38.52,13.08,.07,.4,.11,.64,.11,.64,0,0-.21-.4-.42-.6-.1,.01-.21,.03-.31,.04-.11,.34-.04,1.38,.51,3.95,.52,2.44,.85,3.95,1.05,4.88,.63,0,1.28,0,1.96-.01Z" style="fill:#CB71DF;"></path><path d="M224.71,324.7c.33-.07,.67-.15,1.03-.22,.64-.14,1.32-.28,2.01-.44,.89-.24,1.82-.47,2.75-.67,1.62-.43,3.21-.95,4.6-1.6,3.89-1.83,5.95-3.72,6.3-5.77,.31-1.87-.8-4.04-3.3-6.47-1.11-1.07-2.44-1.57-4.08-1.52-4.15,.13-9.11,3.74-12.49,6.69-.16,.91-.26,1.47-.26,1.47,0,0-1.31,4.06-1.22,5.9,.08,1.84,2.68,2.34,4.57,2.59,.04,0,.06,.02,.09,.03Z" style="fill:#CB71DF;"></path><path d="M214.27,342.94s.96,4.59,.59,9.37c-.04,.49-.08,1-.11,1.52,5.22-2.81,10.26-5.44,12.86-6.58,16.7-7.32,15.3-17.25,14.84-19.17-.31-1.31-.99-2.24-2.09-2.85-2.29-1.27-6.01-.96-9.6-.19-.83,.22-1.65,.42-2.46,.6-1.31,.35-2.54,.73-3.61,1.08-.85,1.72-2.73,3.97-3.9,4.55-1.9,.93-2.32,.31-3.81,4.23-1.49,3.91-2.7,7.45-2.7,7.45Z" style="fill:#CB71DF;"></path><path d="M237.01,280.23c5.02,1.69,11.46,5.38,17.8,9.54-.39-.91-.79-1.83-1.23-2.76-1.26-2.67-2.68-5.18-4.2-7.65-9.48-3.46-20.01-6.82-27.8-9.3,1.31,3.01,2.36,5.43,2.93,6.79,4.03,.84,8.37,1.99,12.5,3.38Z" style="fill:#CB71DF;"></path><path d="M219.37,386.13c-.45,0-.88,0-1.3,0,.61,.31,1.78,1.07,1.16,2.18-.81,1.46-2.09,1.97-1.63,2.92,.47,.95-1.42,.7,2.1,3.09,3.53,2.39,14.34-2.45,14.34-2.45,0,0,6.23-4.29,10.78-8.08-9.57,2.28-18.7,2.31-25.45,2.34Z" style="fill:#CB71DF;"></path><path d="M240.41,302.81c1.52,2.06,3.6,4.88,7.74,8.13,4.42,3.46,8.66,10.1,12.67,19.77,.03-.24,.06-.49,.1-.72-.02-.42-.03-.86-.05-1.32-.28-7.81-.75-20.86-14.97-30.71-7.08-4.9-14.27-5.57-20.17-4.74-.19,3.24-.55,6.32-1.1,8.55,11.04-4.61,12.34-3.62,15.79,1.06Z" style="fill:#CB71DF;"></path><path d="M217.92,230.26c-.85-.48-1.64-.8-2.35-1.01-1.73-.52-3.95,.08-5.59,1.6,2.33-.32,5.02-.56,7.95-.58Z" style="fill:#CB71DF;"></path><path d="M225.13,278.67c.63,2.71,.86,7.82,.67,12.84,6.18-.81,13.66-.04,21.04,5.06,11.46,7.92,14.4,17.8,15.28,25.63,.16-1.83,.11-3.69-.38-6.11-1.26-6.18-2.32-14.29-5.82-23.56-6.9-4.65-14.07-8.92-19.43-10.72-4.05-1.36-7.89-2.39-11.35-3.15Z" style="fill:#CB71DF;"></path></g></g><g><g><g><path d="M288.2,366.12c-6.05,46.01-34.02,49.14-49.9,49.07-14.79-.07-38.27-9.28-43.92-52.22-3.3-25.15,21.51-41.87,46.75-41.87s50.38,19.88,47.07,45.03Z" style="fill:#CB71DF; stroke:#263238; stroke-linecap:round; stroke-linejoin:round;"></path><path d="M288.2,366.12c-6.05,46.01-34.02,49.14-49.9,49.07-14.79-.07-38.27-9.28-43.92-52.22-3.3-25.15,21.51-41.87,46.75-41.87s50.38,19.88,47.07,45.03Z" style="fill:#fff; opacity:.35;"></path><path d="M288.2,366.12c-6.05,46.01-34.02,49.14-49.9,49.07-14.79-.07-38.27-9.28-43.92-52.22-3.3-25.15,21.51-41.87,46.75-41.87s50.38,19.88,47.07,45.03Z" style="fill:none; stroke:#263238; stroke-linecap:round; stroke-linejoin:round;"></path><path d="M252.75,325.69c1.46-1.69,.29-1.61-2.07-2.63" style="fill:none; stroke:#263238; stroke-linecap:round; stroke-linejoin:round;"></path><path d="M233.41,324.91s2.12,3.41,10.82,3.59c3.02,.06,5.37-.59,6.97-1.54" style="fill:none; stroke:#263238; stroke-linecap:round; stroke-linejoin:round;"></path><path d="M241.52,328.14s1.56,.92-3.32-10.98-5.67-11.44-4.11-12.36c1.56-.92,2.54,.46,2.93,2.29,.39,1.83,4.98,17.8,6.29,19.77,.73,1.1,.78,2.2-1.79,1.28Z" style="fill:#263238; stroke:#263238; stroke-linecap:round; stroke-linejoin:round;"></path></g><g><path d="M238.48,314.11l5.68-4.5s.39-6.66,4.5-14.49c4.11-7.83,16.84-11.75,23.69-12.33,6.85-.59,22.32-1.76,22.32-1.76,0,0-9.2,18.01-10.57,22.32-1.37,4.31-9.4,9.4-17.42,10.57s-21.34-2.74-21.34-2.74l-5.87,4.5-.98-1.57Z" style="fill:#CB71DF; stroke:#263238; stroke-linecap:round; stroke-linejoin:round;"></path><path d="M284.58,285.53c3.2-1.6,5.19-2.54,5.19-2.54" style="fill:none; stroke:#263238; stroke-linecap:round; stroke-linejoin:round;"></path><path d="M246.51,309.61s4.89-5.29,17.62-12.92c5.79-3.47,11.61-6.62,16.25-9.02" style="fill:none; stroke:#263238; stroke-linecap:round; stroke-linejoin:round;"></path><path d="M261.42,309.09c2.16,.23,4.49,.37,6.82,.32" style="fill:none; stroke:#263238; stroke-linecap:round; stroke-linejoin:round;"></path><path d="M250.62,307.07s3.7,1.07,8.69,1.77" style="fill:none; stroke:#263238; stroke-linecap:round; stroke-linejoin:round;"></path><path d="M273.07,302.82c.98,.18,2.04,.35,3.2,.53" style="fill:none; stroke:#263238; stroke-linecap:round; stroke-linejoin:round;"></path><path d="M262.95,299.82s1.69,1.21,7.54,2.48" style="fill:none; stroke:#263238; stroke-linecap:round; stroke-linejoin:round;"></path><path d="M271.17,293.56s6.85,1.57,12.72,0" style="fill:none; stroke:#263238; stroke-linecap:round; stroke-linejoin:round;"></path><path d="M252.38,293.75s-3.33,6.85-3.52,10.18" style="fill:none; stroke:#263238; stroke-linecap:round; stroke-linejoin:round;"></path><path d="M261.78,287.1s-1.96,5.87-2.15,8.22" style="fill:none; stroke:#263238; stroke-linecap:round; stroke-linejoin:round;"></path><path d="M270.98,284.55s-1.57,2.74-1.57,4.5" style="fill:none; stroke:#263238; stroke-linecap:round; stroke-linejoin:round;"></path></g></g><path d="M247,343.34s4.62,8.53,5.69,16.36,6.4,3.2,7.11-.36,4.27-4.62,4.62-2.49,1.42-1.42,1.78-3.2,2.84-1.07,3.56,4.27-1.78,9.96,.71,7.47c2.49-2.49,4.62-11.38,2.13-19.2-2.49-7.82-14.94-14.58-14.94-12.45s.36,5.69-.71,6.05-6.37-6.77-6.99-4.63c-.62,2.13-.12,6.06-.12,6.06,0,0-3.91-2.49-2.84,2.13Z" style="fill:#fff; opacity:.64;"></path><path d="M235.27,340.14s-2.13,10.31-.71,13.87,3.91,0,4.62-5.69c.71-5.69,1.07-14.94-3.91-8.18Z" style="fill:#fff; opacity:.64;"></path></g><g><path d="M135.64,327.29s33.21,7.04,50.64,17.83c17.43,10.79,22.92,33.25,17.03,46.19-5.9,12.95-20.9,27.91-50.77,20-29.87-7.91-31.57-32.35-33.2-54.96-1.63-22.61-.03-30.16,16.3-29.06Z" style="fill:#fff; stroke:#263238; stroke-linecap:round; stroke-linejoin:round;"></path><path d="M174.01,384.55s-15.55,6.71-27.18-4.81c-11.63-11.52-3.51-23.75,6.97-27.5,10.48-3.75,18.99,1.61,24.42,8.53,5.43,6.92,6.43,21.11-4.21,23.78Z" style="fill:#878787; stroke:#263238; stroke-linecap:round; stroke-linejoin:round;"></path><path d="M121.14,332.29l.04,1.37s-1.69,38.77,12.31,54.77c14,16.01,29.35,23.06,47.53,19.31,4.78-.99,8.92-2.07,12.45-3.12-8.44,7.33-24.17,14.37-40.45,9.52-29.61-8.83-32.05-35.17-33.68-57.78-.85-11.88-.79-19.57,1.8-24.06Z" style="fill:#CB71DF; stroke:#263238; stroke-linecap:round; stroke-linejoin:round;"></path></g></g><g id="freepik--Symbol_2--inject-2"><g><circle cx="569.32" cy="89.24" r="44" style="fill:#fff; stroke:#263238; stroke-linecap:round; stroke-linejoin:round;"></circle><circle cx="569.32" cy="89.24" r="32.26" style="fill:#263238; stroke:#263238; stroke-linecap:round; stroke-linejoin:round;"></circle><path d="M578.3,89.24l29.8-26.76c2.47-2.21,2.67-6.01,.45-8.47-2.21-2.47-6.01-2.67-8.47-.46l-30.77,27.63-30.77-27.63c-2.47-2.22-6.26-2.01-8.47,.46-2.21,2.47-2.01,6.26,.46,8.47l29.8,26.76-29.8,26.76c-2.47,2.21-2.67,6.01-.46,8.47,1.19,1.32,2.82,1.99,4.47,1.99,1.43,0,2.86-.51,4.01-1.54l30.77-27.63,30.77,27.63c1.15,1.03,2.58,1.54,4.01,1.54,1.64,0,3.28-.67,4.47-1.99,2.21-2.47,2.01-6.26-.45-8.47l-29.8-26.76Z" style="fill:#CB71DF; stroke:#263238; stroke-miterlimit:10;"></path></g></g><g id="freepik--Symbol_1--inject-2"><g><circle cx="221.1" cy="89.48" r="44" transform="translate(-15.38 58.32) rotate(-14.53)" style="fill:#fff; stroke:#263238; stroke-linecap:round; stroke-linejoin:round;"></circle><circle cx="221.1" cy="89.48" r="32.26" transform="translate(-16.44 67.91) rotate(-16.85)" style="fill:#263238; stroke:#263238; stroke-linecap:round; stroke-linejoin:round;"></circle><path d="M222.52,108.25c-.07,0-.14,0-.21,0-1.9-.07-3.66-1.03-4.73-2.6l-17.03-24.84c-1.87-2.73-1.18-6.47,1.56-8.34,2.73-1.88,6.47-1.18,8.34,1.56l12.44,18.15,50.3-63.2c2.06-2.59,5.84-3.02,8.43-.96,2.59,2.06,3.02,5.84,.96,8.43l-55.36,69.55c-1.14,1.43-2.87,2.26-4.69,2.26Z" style="fill:#CB71DF; stroke:#263238; stroke-linecap:round; stroke-linejoin:round;"></path></g></g></svg>
